<svg width="154" height="92" viewBox="0 0 154 92" fill="none" xmlns="http://www.w3.org/2000/svg">
<rect y="0.431641" width="154" height="91.5683" fill="url(#paint0_linear_802_97)"/>
<path d="M65.248 51.6387L68.4336 36.0938H70.4023L70.3203 39.9902L66.875 56H64.8105L65.248 51.6387ZM63.2246 36.0938L65.7539 51.5293L65.8633 56H63.6895L59.9297 36.0938H63.2246ZM73.8613 51.4746L76.3633 36.0938H79.6445L75.8984 56H73.7246L73.8613 51.4746ZM71.1953 36.0938L74.3535 51.6797L74.7637 56H72.6992L69.3359 39.9766L69.2539 36.0938H71.1953ZM85.2637 41.207V56H82.0781V41.207H85.2637ZM81.9141 37.3242C81.9141 36.8138 82.069 36.39 82.3789 36.0527C82.6888 35.7155 83.1217 35.5469 83.6777 35.5469C84.2337 35.5469 84.6667 35.7155 84.9766 36.0527C85.2865 36.39 85.4414 36.8138 85.4414 37.3242C85.4414 37.8255 85.2865 38.2448 84.9766 38.582C84.6667 38.9193 84.2337 39.0879 83.6777 39.0879C83.1217 39.0879 82.6888 38.9193 82.3789 38.582C82.069 38.2448 81.9141 37.8255 81.9141 37.3242ZM92.0449 41.207V56H88.8594V41.207H92.0449ZM88.6953 37.3242C88.6953 36.8138 88.8503 36.39 89.1602 36.0527C89.4701 35.7155 89.903 35.5469 90.459 35.5469C91.015 35.5469 91.4479 35.7155 91.7578 36.0527C92.0677 36.39 92.2227 36.8138 92.2227 37.3242C92.2227 37.8255 92.0677 38.2448 91.7578 38.582C91.4479 38.9193 91.015 39.0879 90.459 39.0879C89.903 39.0879 89.4701 38.9193 89.1602 38.582C88.8503 38.2448 88.6953 37.8255 88.6953 37.3242Z" fill="#888888" fill-opacity="0.28"/>
<line y1="89.5" x2="154" y2="89.5" stroke="#8E8E8E" stroke-opacity="0.12"/>
<line y1="86.5" x2="154" y2="86.5" stroke="#8E8E8E" stroke-opacity="0.12"/>
<line y1="83.5" x2="154" y2="83.5" stroke="#8E8E8E" stroke-opacity="0.12"/>
<line y1="80.5" x2="154" y2="80.5" stroke="#8E8E8E" stroke-opacity="0.12"/>
<line y1="77.5" x2="154" y2="77.5" stroke="#8E8E8E" stroke-opacity="0.12"/>
<line y1="74.5" x2="154" y2="74.5" stroke="#8E8E8E" stroke-opacity="0.12"/>
<line y1="71.5" x2="154" y2="71.5" stroke="#8E8E8E" stroke-opacity="0.12"/>
<line y1="68.5" x2="154" y2="68.5" stroke="#8E8E8E" stroke-opacity="0.12"/>
<line y1="65.5" x2="154" y2="65.5" stroke="#8E8E8E" stroke-opacity="0.12"/>
<line y1="62.5" x2="154" y2="62.5" stroke="#8E8E8E" stroke-opacity="0.12"/>
<line y1="59.5" x2="154" y2="59.5" stroke="#8E8E8E" stroke-opacity="0.12"/>
<line y1="56.5" x2="154" y2="56.5" stroke="#8E8E8E" stroke-opacity="0.12"/>
<line y1="53.5" x2="154" y2="53.5" stroke="#8E8E8E" stroke-opacity="0.12"/>
<line y1="50.5" x2="154" y2="50.5" stroke="#8E8E8E" stroke-opacity="0.12"/>
<line y1="47.5" x2="154" y2="47.5" stroke="#8E8E8E" stroke-opacity="0.12"/>
<line y1="44.5" x2="154" y2="44.5" stroke="#8E8E8E" stroke-opacity="0.12"/>
<line y1="41.5" x2="154" y2="41.5" stroke="#8E8E8E" stroke-opacity="0.12"/>
<line y1="38.5" x2="154" y2="38.5" stroke="#8E8E8E" stroke-opacity="0.12"/>
<line y1="35.5" x2="154" y2="35.5" stroke="#8E8E8E" stroke-opacity="0.12"/>
<line y1="32.5" x2="154" y2="32.5" stroke="#8E8E8E" stroke-opacity="0.12"/>
<line y1="29.5" x2="154" y2="29.5" stroke="#8E8E8E" stroke-opacity="0.12"/>
<line y1="26.5" x2="154" y2="26.5" stroke="#8E8E8E" stroke-opacity="0.12"/>
<line y1="23.5" x2="154" y2="23.5" stroke="#8E8E8E" stroke-opacity="0.12"/>
<line y1="20.5" x2="154" y2="20.5" stroke="#8E8E8E" stroke-opacity="0.12"/>
<line y1="17.5" x2="154" y2="17.5" stroke="#8E8E8E" stroke-opacity="0.12"/>
<line y1="14.5" x2="154" y2="14.5" stroke="#8E8E8E" stroke-opacity="0.12"/>
<line y1="11.5" x2="154" y2="11.5" stroke="#8E8E8E" stroke-opacity="0.12"/>
<line y1="8.5" x2="154" y2="8.5" stroke="#8E8E8E" stroke-opacity="0.12"/>
<line y1="5.5" x2="154" y2="5.5" stroke="#8E8E8E" stroke-opacity="0.12"/>
<line y1="2.5" x2="154" y2="2.5" stroke="#8E8E8E" stroke-opacity="0.12"/>
<defs>
<linearGradient id="paint0_linear_802_97" x1="80.8889" y1="92" x2="80.8889" y2="0.431642" gradientUnits="userSpaceOnUse">
<stop stop-color="#B1B1B1"/>
<stop offset="0.27" stop-color="#CACACA"/>
<stop offset="0.63" stop-color="#CACACA"/>
<stop offset="1" stop-color="#B1B1B1"/>
</linearGradient>
</defs>
</svg>
